<?xml version="1.0" encoding="UTF-8" standalone="no"?>
<!-- Generator: Adobe Illustrator 16.0.0, SVG Export Plug-In . SVG Version: 6.00 Build 0)  -->

<svg
   version="1.1"
   id="icons"
   x="0px"
   y="0px"
   width="64px"
   height="64px"
   viewBox="0 0 64 64"
   enable-background="new 0 0 64 64"
   xml:space="preserve"
   sodipodi:docname="drone.svg"
   inkscape:version="1.2.2 (b0a8486541, 2022-12-01)"
   xmlns:inkscape="http://www.inkscape.org/namespaces/inkscape"
   xmlns:sodipodi="http://sodipodi.sourceforge.net/DTD/sodipodi-0.dtd"
   xmlns="http://www.w3.org/2000/svg"
   xmlns:svg="http://www.w3.org/2000/svg"><defs
   id="defs53" /><sodipodi:namedview
   id="namedview51"
   pagecolor="#ffffff"
   bordercolor="#666666"
   borderopacity="1.0"
   inkscape:showpageshadow="2"
   inkscape:pageopacity="0.0"
   inkscape:pagecheckerboard="0"
   inkscape:deskcolor="#d1d1d1"
   showgrid="false"
   inkscape:zoom="11.346854"
   inkscape:cx="32.167506"
   inkscape:cy="25.998395"
   inkscape:window-width="2560"
   inkscape:window-height="1403"
   inkscape:window-x="0"
   inkscape:window-y="0"
   inkscape:window-maximized="1"
   inkscape:current-layer="icons" />
<g
   id="g48">
	<path
   fill="#545C66"
   d="M38.365,22.8L53.194,7.97c-0.739,0.79-0.719,2.021,0.041,2.79c0.77,0.76,1.99,0.78,2.77,0.05l-14.81,14.82   L38.365,22.8z"
   id="path2" />
	<path
   fill="#545C66"
   d="M10.755,10.76c0.761-0.76,0.78-1.99,0.05-2.77l14.82,14.81l0.01,0.01l-2.83,2.83l-0.01-0.01L7.925,10.76   C8.705,11.54,9.976,11.54,10.755,10.76z"
   id="path4" />
	<path
   fill="#656D78"
   d="M44.735,29.17c1.55,1.55,1.55,4.1,0,5.65l-3.54,3.55l-2.83,2.83l-3.53,3.52c-1.56,1.55-4.1,1.55-5.66,0   l-3.529-3.529l-2.83-2.83l-3.53-3.54c-1.56-1.551-1.56-4.101,0-5.65l3.52-3.53l2.83-2.83l3.54-3.54c1.561-1.56,4.101-1.56,5.66,0   l3.53,3.53l2.83,2.83L44.735,29.17z M36.955,36.94c2.74-2.73,2.74-7.16,0-9.9c-2.729-2.73-7.17-2.73-9.9,0   c-2.729,2.74-2.729,7.17,0,9.9C29.785,39.68,34.226,39.68,36.955,36.94z"
   id="path6" />
	<path
   fill="#656D78"
   d="M34.125,29.87c1.17,1.17,1.17,3.08,0,4.25s-3.07,1.17-4.24,0c-1.17-1.18-1.17-3.08,0-4.25   S32.955,28.7,34.125,29.87z"
   id="path8" />
	<path
   fill="#545C66"
   d="M36.955,27.04c2.74,2.74,2.74,7.17,0,9.9c-2.729,2.739-7.17,2.739-9.9,0c-2.729-2.73-2.729-7.16,0-9.9   C29.785,24.31,34.226,24.31,36.955,27.04z M34.125,34.12c1.17-1.17,1.17-3.08,0-4.25s-3.07-1.17-4.24,0s-1.17,3.07,0,4.25   C31.055,35.29,32.955,35.29,34.125,34.12z"
   id="path10" />
	<path
   fill="#545C66"
   d="M53.245,56.07L38.365,41.2l2.83-2.83l14.88,14.87c-0.781-0.78-2.051-0.78-2.83,0   C52.465,54.02,52.465,55.29,53.245,56.07z"
   id="path12" />
	<path
   fill="#545C66"
   d="M10.755,56.08c0.78-0.79,0.78-2.05,0-2.83c-0.76-0.77-1.989-0.79-2.77-0.06l14.819-14.82l0.011-0.01   l2.83,2.83l-0.011,0.01L10.755,56.08z"
   id="path14" />
	<path
   fill="#545C66"
   d="M16.709,63.024c-0.256,0-0.512-0.098-0.707-0.293l-6.95-6.95c-0.391-0.391-0.391-1.023,0-1.414   s1.023-0.391,1.414,0l6.95,6.95c0.391,0.391,0.391,1.023,0,1.414C17.221,62.927,16.965,63.024,16.709,63.024z"
   id="path16" />
	<path
   fill="#545C66"
   d="M8.931,55.25c-0.256,0-0.512-0.098-0.707-0.293l-6.957-6.956c-0.391-0.391-0.391-1.023,0-1.414   s1.023-0.391,1.414,0l6.957,6.956c0.391,0.391,0.391,1.023,0,1.414C9.442,55.152,9.187,55.25,8.931,55.25z"
   id="path18" />
	<g
   id="g22">
		<path
   fill="#545C66"
   d="M54.241,9.926c-0.256,0-0.512-0.098-0.707-0.293l-6.95-6.95c-0.391-0.391-0.391-1.023,0-1.414    s1.023-0.391,1.414,0l6.95,6.95c0.391,0.391,0.391,1.023,0,1.414C54.753,9.828,54.497,9.926,54.241,9.926z"
   id="path20" />
	</g>
	<g
   id="g26">
		<path
   fill="#545C66"
   d="M62.026,17.706c-0.256,0-0.512-0.098-0.707-0.293l-6.956-6.956c-0.391-0.391-0.391-1.023,0-1.414    s1.023-0.391,1.414,0l6.956,6.956c0.391,0.391,0.391,1.023,0,1.414C62.538,17.608,62.282,17.706,62.026,17.706z"
   id="path24" />
	</g>
	<path
   fill="#545C66"
   d="M1.976,17.709c-0.256,0-0.512-0.098-0.707-0.293c-0.391-0.391-0.391-1.023,0-1.414l6.949-6.95   c0.391-0.391,1.023-0.391,1.414,0s0.391,1.023,0,1.414l-6.949,6.95C2.487,17.611,2.231,17.709,1.976,17.709z"
   id="path28" />
	<path
   fill="#545C66"
   d="M9.75,9.931c-0.256,0-0.512-0.098-0.707-0.293c-0.391-0.391-0.391-1.023,0-1.414l6.956-6.957   c0.391-0.391,1.023-0.391,1.414,0s0.391,1.023,0,1.414l-6.956,6.957C10.262,9.833,10.006,9.931,9.75,9.931z"
   id="path30" />
	<g
   id="g34">
		<path
   fill="#545C66"
   d="M55.074,55.241c-0.256,0-0.512-0.098-0.707-0.293c-0.391-0.391-0.391-1.023,0-1.414l6.95-6.95    c0.391-0.391,1.023-0.391,1.414,0s0.391,1.023,0,1.414l-6.95,6.95C55.586,55.144,55.33,55.241,55.074,55.241z"
   id="path32" />
	</g>
	<g
   id="g38">
		<path
   fill="#545C66"
   d="M47.294,63.026c-0.256,0-0.512-0.098-0.707-0.293c-0.391-0.391-0.391-1.023,0-1.414l6.956-6.957    c0.391-0.391,1.023-0.391,1.414,0s0.391,1.023,0,1.414l-6.956,6.957C47.806,62.929,47.55,63.026,47.294,63.026z"
   id="path36" />
	</g>
	<path
   fill="#656D78"
   d="M53.235,10.76c-0.76-0.77-0.78-2-0.041-2.79l0.051-0.05c0.789-0.78,2.039-0.78,2.82,0   c0.789,0.79,0.789,2.04,0,2.83v0.01c-0.021,0.021-0.041,0.04-0.061,0.05C55.226,11.54,54.005,11.52,53.235,10.76z"
   id="path40" />
	<path
   fill="#656D78"
   d="M10.745,7.93h0.01l0.05,0.061c0.73,0.779,0.711,2.01-0.05,2.77c-0.779,0.78-2.05,0.78-2.83,0   c-0.779-0.779-0.779-2.05,0-2.83C8.705,7.15,9.965,7.15,10.745,7.93z"
   id="path42" />
	<circle
   fill="#656D78"
   cx="54.66"
   cy="54.655"
   r="2.001"
   id="circle44" />
	<path
   fill="#656D78"
   d="M10.755,53.25c0.78,0.78,0.78,2.04,0,2.83c-0.779,0.78-2.05,0.78-2.83,0c-0.779-0.79-0.779-2.04,0-2.83   l0.061-0.06C8.766,52.46,9.995,52.48,10.755,53.25z"
   id="path46" />
</g>
<text
   xml:space="preserve"
   style="font-style:normal;font-variant:normal;font-weight:normal;font-stretch:normal;font-size:68.0315px;line-height:1.25;font-family:'Comic Code Ligatures';-inkscape-font-specification:'Comic Code Ligatures'"
   x="-77.62262"
   y="59.334877"
   id="text317"
   transform="rotate(-86.174227)"><tspan
     sodipodi:role="line"
     id="tspan315"
     x="-77.62262"
     y="59.334877"
     style="font-style:normal;font-variant:normal;font-weight:normal;font-stretch:normal;font-size:68.0315px;font-family:'Comic Code Ligatures';-inkscape-font-specification:'Comic Code Ligatures';fill:#ff0000">-&gt;</tspan></text></svg>
